<?xml version="1.0" encoding="UTF-8" standalone="no"?><!DOCTYPE svg PUBLIC "-//W3C//DTD SVG 1.1//EN" "http://www.w3.org/Graphics/SVG/1.1/DTD/svg11.dtd"><svg width="100%" height="100%" viewBox="0 0 539 120" version="1.1" xmlns="http://www.w3.org/2000/svg" xmlns:xlink="http://www.w3.org/1999/xlink" xml:space="preserve" xmlns:serif="http://www.serif.com/" style="fill-rule:evenodd;clip-rule:evenodd;stroke-linejoin:round;stroke-miterlimit:2;"><g><rect x="0" y="3.666" width="164.795" height="110.549" style="fill:#074ea2;fill-rule:nonzero;"/><path d="M118.608,74.855l4.688,0l-3.78,2.829l1.471,4.492l-3.766,-2.774l-3.758,2.774l1.485,-4.492l-3.808,-2.829l4.673,0l1.408,-4.378l1.387,4.378Z" style="fill:#fff200;fill-rule:nonzero;"/><path d="M84.836,19.503l4.681,0l-3.773,2.844l1.471,4.491l-3.765,-2.76l-3.766,2.76l1.485,-4.491l-3.801,-2.844l4.667,0l1.415,-4.364l1.386,4.364Z" style="fill:#fff200;fill-rule:nonzero;"/><path d="M84.836,94.774l4.681,0l-3.773,2.844l1.471,4.504l-3.765,-2.773l-3.766,2.773l1.485,-4.504l-3.801,-2.844l4.667,0l1.415,-4.363l1.386,4.363Z" style="fill:#fff200;fill-rule:nonzero;"/><path d="M64.079,89.51l4.681,0l-3.758,2.815l1.449,4.505l-3.759,-2.774l-3.765,2.774l1.485,-4.505l-3.801,-2.815l4.667,0l1.414,-4.392l1.387,4.392Z" style="fill:#fff200;fill-rule:nonzero;"/><path d="M119.417,39.859l4.681,0l-3.759,2.83l1.457,4.491l-3.765,-2.76l-3.759,2.76l1.485,-4.491l-3.808,-2.83l4.667,0l1.415,-4.378l1.386,4.378Z" style="fill:#fff200;fill-rule:nonzero;"/><path d="M51.466,39.437l4.681,0l-3.78,2.844l1.471,4.476l-3.758,-2.745l-3.766,2.745l1.485,-4.476l-3.801,-2.844l4.667,0l1.415,-4.364l1.386,4.364Z" style="fill:#fff200;fill-rule:nonzero;"/><path d="M105.171,26.021l4.702,0l-3.78,2.83l1.457,4.49l-3.759,-2.759l-3.751,2.759l1.471,-4.49l-3.808,-2.83l4.674,0l1.414,-4.378l1.38,4.378Z" style="fill:#fff200;fill-rule:nonzero;"/><path d="M66.106,25.613l4.702,0l-3.78,2.829l1.457,4.491l-3.758,-2.759l-3.752,2.759l1.471,-4.491l-3.808,-2.829l4.674,0l1.415,-4.378l1.379,4.378Z" style="fill:#fff200;fill-rule:nonzero;"/><path d="M106.804,89.51l4.681,0l-3.773,2.815l1.471,4.505l-3.766,-2.774l-3.744,2.774l1.471,-4.505l-3.808,-2.815l4.667,0l1.414,-4.392l1.387,4.392Z" style="fill:#fff200;fill-rule:nonzero;"/><path d="M47.397,56.541l4.688,0l-3.779,2.829l1.471,4.491l-3.766,-2.773l-3.759,2.773l1.485,-4.491l-3.807,-2.829l4.674,0l1.407,-4.392l1.386,4.392Z" style="fill:#fff200;fill-rule:nonzero;"/><path d="M122.676,56.935l4.681,0l-3.773,2.844l1.471,4.49l-3.765,-2.759l-3.766,2.759l1.485,-4.49l-3.801,-2.844l4.667,0l1.415,-4.364l1.386,4.364Z" style="fill:#fff200;fill-rule:nonzero;"/><path d="M51.867,74.855l4.695,0l-3.773,2.829l1.457,4.492l-3.765,-2.774l-3.745,2.774l1.471,-4.492l-3.808,-2.829l4.674,0l1.408,-4.378l1.386,4.378Z" style="fill:#fff200;fill-rule:nonzero;"/><path d="M205.359,4.145l12.381,0l0,2.21l-9.988,0l0,6.307l7.426,0l0,2.154l-7.426,0l0,7.348l10.565,0l0,2.182l-12.958,0l0,-20.201Z" style="fill:#231f20;fill-rule:nonzero;"/><path d="M222.182,17.349l0,-13.204l2.407,0l0,12.895c0,3.238 1.555,5.504 5.131,5.504c3.533,0 5.089,-2.182 5.089,-5.462l0,-12.937l2.365,0l0,13.148c0,4.209 -2.478,7.419 -7.482,7.419c-5.188,0 -7.51,-3.181 -7.51,-7.363Z" style="fill:#231f20;fill-rule:nonzero;"/><path d="M249.555,13.507c3.16,0 4.948,-0.873 4.948,-3.633c0,-2.646 -1.76,-3.547 -4.977,-3.547l-4.399,0l0,7.18l4.428,0Zm-6.807,-9.362l6.94,0c4.582,0 7.173,1.943 7.173,5.659c0,3.238 -1.83,4.927 -4.681,5.533l4.955,9.009l-2.618,0l-4.829,-8.7l-4.561,0l0,8.7l-2.379,0l0,-20.201Z" style="fill:#231f20;fill-rule:nonzero;"/><path d="M275.822,14.239c0,-5.251 -2.625,-8.292 -6.284,-8.292c-3.71,0 -6.3,3.041 -6.3,8.292c0,5.278 2.59,8.333 6.3,8.333c3.659,0 6.284,-3.055 6.284,-8.333Zm-15.02,0c0,-6.49 3.745,-10.474 8.736,-10.474c4.997,0 8.692,3.984 8.692,10.474c0,6.503 -3.695,10.501 -8.692,10.501c-4.991,0 -8.736,-3.998 -8.736,-10.501Z" style="fill:#231f20;fill-rule:nonzero;"/><path d="M289.879,13.661c3.238,0 4.955,-0.971 4.955,-3.702c0,-2.59 -1.689,-3.632 -4.982,-3.632l-4.393,0l0,7.334l4.42,0Zm-6.814,-9.516l6.857,0c4.363,0 7.291,1.718 7.291,5.729c0,4.308 -3.223,5.927 -7.446,5.927l-4.308,0l0,8.545l-2.394,0l0,-20.201Z" style="fill:#231f20;fill-rule:nonzero;"/><path d="M308.123,0.372l2.436,0l0,2.577l-2.436,0l0,-2.577Zm1.943,16.091l-3.211,-9.489l-0.055,0l-3.294,9.489l6.56,0Zm-6.898,-16.091l2.392,0l0,2.577l-2.392,0l0,-2.577Zm2.449,3.689l2.506,0l7.166,20.285l-2.492,0l-1.999,-5.786l-8.025,0l-1.984,5.786l-2.322,0l7.15,-20.285Z" style="fill:#231f20;fill-rule:nonzero;"/><rect x="319.498" y="4.145" width="2.393" height="20.201" style="fill:#231f20;fill-rule:nonzero;"/><path d="M326.606,19.461l2.013,-0.901c1.028,2.703 3.014,4.04 5.744,4.04c2.844,0 4.731,-1.196 4.731,-3.322c0,-1.999 -1.099,-2.984 -5.082,-4.237c-4.209,-1.295 -6.715,-2.422 -6.715,-5.926c0,-3.083 2.646,-5.35 6.504,-5.35c3.828,0 6.08,1.957 7.123,4.519l-1.915,1.07c-1.099,-2.422 -2.844,-3.407 -5.238,-3.407c-2.561,0 -4.095,1.267 -4.095,2.97c0,2.154 1.351,2.872 5.32,4.125c4.068,1.253 6.462,2.632 6.462,6.053c0,3.336 -2.928,5.645 -7.208,5.645c-3.843,0 -6.588,-2.083 -7.644,-5.279Z" style="fill:#231f20;fill-rule:nonzero;"/><path d="M345.217,14.154c0,-6.292 3.506,-10.389 8.572,-10.389c4.28,0 6.547,2.478 7.49,6.194l-2.308,0.619c-0.873,-3.054 -2.253,-4.603 -5.209,-4.603c-3.774,0 -6.11,3.167 -6.11,8.165c0,5.349 2.393,8.404 6.166,8.404c2.871,0 4.645,-1.619 5.491,-4.884l2.265,0.52c-0.999,3.984 -3.56,6.56 -7.785,6.56c-5.123,0 -8.572,-3.97 -8.572,-10.586Z" style="fill:#231f20;fill-rule:nonzero;"/><path d="M366.094,4.145l2.392,0l0,8.474l10.404,0l0,-8.474l2.407,0l0,20.201l-2.407,0l0,-9.53l-10.404,0l0,9.53l-2.392,0l0,-20.201Z" style="fill:#231f20;fill-rule:nonzero;"/><path d="M387.012,4.145l12.402,0l0,2.21l-9.98,0l0,6.307l7.418,0l0,2.154l-7.418,0l0,7.348l10.557,0l0,2.182l-12.979,0l0,-20.201Z" style="fill:#231f20;fill-rule:nonzero;"/><path d="M410.408,17.349l0,-13.204l2.394,0l0,12.895c0,3.238 1.548,5.504 5.124,5.504c3.533,0 5.095,-2.182 5.095,-5.462l0,-12.937l2.366,0l0,13.148c0,4.209 -2.492,7.419 -7.49,7.419c-5.194,0 -7.489,-3.181 -7.489,-7.363Z" style="fill:#231f20;fill-rule:nonzero;"/><path d="M430.961,4.145l2.534,0l10.614,15.978l0.057,0l0,-15.978l2.28,0l0,20.201l-2.153,0l-11.024,-16.4l-0.055,0l0,16.4l-2.253,0l0,-20.201Z" style="fill:#231f20;fill-rule:nonzero;"/><rect x="452.316" y="4.145" width="2.408" height="20.201" style="fill:#231f20;fill-rule:nonzero;"/><path d="M474.713,14.239c0,-5.251 -2.632,-8.292 -6.292,-8.292c-3.702,0 -6.292,3.041 -6.292,8.292c0,5.278 2.59,8.333 6.292,8.333c3.66,0 6.292,-3.055 6.292,-8.333Zm-15.033,0c0,-6.49 3.744,-10.474 8.741,-10.474c4.983,0 8.685,3.984 8.685,10.474c0,6.503 -3.702,10.501 -8.685,10.501c-4.997,0 -8.741,-3.998 -8.741,-10.501Z" style="fill:#231f20;fill-rule:nonzero;"/><path d="M481.949,4.145l2.533,0l10.643,15.978l0.029,0l0,-15.978l2.266,0l0,20.201l-2.154,0l-10.98,-16.4l-0.07,0l0,16.4l-2.267,0l0,-20.201Z" style="fill:#231f20;fill-rule:nonzero;"/><path d="M205.359,64.227l12.381,0l0,2.196l-9.988,0l0,6.32l7.426,0l0,2.141l-7.426,0l0,7.362l10.565,0l0,2.182l-12.958,0l0,-20.201Z" style="fill:#231f20;fill-rule:nonzero;"/><path d="M222.019,80.401l0,-10.402l2.352,0l0,9.924c0,1.9 0.809,2.801 2.639,2.801c1.759,0 3.175,-0.901 4.674,-2.323l0,-10.402l2.378,0l0,14.429l-2.378,0l0,-2.154c-1.26,1.225 -3.062,2.436 -5.406,2.436c-2.759,0 -4.259,-1.577 -4.259,-4.309Z" style="fill:#231f20;fill-rule:nonzero;"/><path d="M238.891,69.999l2.344,0l0,2.688l0.063,0c1.063,-1.674 2.752,-2.984 5.561,-2.984l0.303,0l-0.155,2.183c-0.092,-0.03 -0.606,-0.03 -0.697,-0.03c-2.288,0 -4.005,1.198 -5.075,3.267l0,9.305l-2.344,0l0,-14.429Z" style="fill:#231f20;fill-rule:nonzero;"/><path d="M260.463,77.206c0,-2.998 -1.435,-5.477 -4.306,-5.477c-2.752,0 -4.336,2.239 -4.336,5.477c0,3.068 1.422,5.518 4.336,5.518c2.737,0 4.306,-2.196 4.306,-5.518Zm-11.021,0c0,-4.955 3.167,-7.503 6.715,-7.503c3.533,0 6.687,2.548 6.687,7.503c0,4.941 -3.154,7.517 -6.687,7.517c-3.519,0 -6.715,-2.576 -6.715,-7.517Z" style="fill:#231f20;fill-rule:nonzero;"/><path d="M277.576,77.206c0,-3.674 -1.739,-5.477 -4.062,-5.477c-1.675,0 -3.013,0.888 -4.209,2.211l0,6.602c1.253,1.422 2.653,2.182 4.181,2.182c2.506,0 4.09,-1.674 4.09,-5.518Zm-10.622,-7.207l2.351,0l0,1.998c1.091,-1.21 2.597,-2.294 4.744,-2.294c3.315,0 5.877,2.464 5.877,7.489c0,5.012 -2.59,7.461 -6.123,7.461c-1.774,0 -3.273,-0.803 -4.498,-2.084l0,7.307l-2.351,0l0,-19.877Z" style="fill:#231f20;fill-rule:nonzero;"/><path d="M291.033,65.93l2.449,0l0,2.577l-2.449,0l0,-2.577Zm-4.955,0l2.393,0l0,2.577l-2.393,0l0,-2.577Zm6.673,14.753l0,-4.04c-5.49,0.873 -7.292,2.21 -7.292,4.012c0,1.394 0.914,2.125 2.421,2.125c1.915,0 3.548,-0.787 4.871,-2.097Zm-9.629,0.324c0,-2.914 2.478,-4.997 9.629,-6.011l0,-0.661c0,-1.803 -0.943,-2.661 -2.718,-2.661c-2.181,0 -3.814,0.943 -5.223,2.182l-1.224,-1.478c1.662,-1.521 3.815,-2.675 6.687,-2.675c3.45,0 4.815,1.802 4.815,4.814l0,6.349c0,1.746 0.112,2.815 0.408,3.562l-2.408,0c-0.196,-0.605 -0.337,-1.183 -0.337,-1.999c-1.591,1.492 -3.394,2.224 -5.561,2.224c-2.491,0 -4.068,-1.323 -4.068,-3.646Z" style="fill:#231f20;fill-rule:nonzero;"/><path d="M299.959,69.999l2.336,0l0,14.415l-2.336,0l0,-14.415Zm-0.057,-5.378l2.45,0l0,2.295l-2.45,0l0,-2.295Z" style="fill:#231f20;fill-rule:nonzero;"/><path d="M306.124,82.246l1.422,-1.437c1.084,1.184 2.548,2 4.491,2c2.252,0 3.49,-0.789 3.49,-2.267c0,-1.449 -1.266,-1.998 -3.73,-2.562c-3.055,-0.746 -5.166,-1.548 -5.166,-4.349c0,-2.168 1.929,-3.928 5.068,-3.928c2.533,0 4.181,0.816 5.504,2.069l-1.225,1.563c-1.097,-1.014 -2.562,-1.717 -4.181,-1.717c-2.098,0 -2.914,0.914 -2.914,1.941c0,1.325 1.14,1.83 3.407,2.352c3.267,0.789 5.49,1.576 5.49,4.561c0,2.746 -2.477,4.238 -5.772,4.238c-2.59,0 -4.701,-1.057 -5.884,-2.464Z" style="fill:#231f20;fill-rule:nonzero;"/><path d="M321.018,77.206c0,-5.265 3.392,-7.503 6.617,-7.503c3.252,0 4.785,1.915 5.658,4.04l-1.998,0.83c-0.705,-1.857 -1.83,-2.871 -3.717,-2.871c-2.069,0 -4.167,1.436 -4.167,5.504c0,3.561 1.689,5.547 4.11,5.547c1.831,0 2.957,-0.789 3.885,-2.887l1.944,0.761c-1.126,2.407 -2.787,4.096 -5.899,4.096c-3.336,0 -6.433,-2.576 -6.433,-7.517Z" style="fill:#231f20;fill-rule:nonzero;"/><path d="M337.122,64.227l2.394,0l0,7.94c1.238,-1.225 3.041,-2.464 5.405,-2.464c2.745,0 4.251,1.577 4.251,4.321l0,10.404l-2.364,0l0,-9.882c0,-1.929 -0.803,-2.817 -2.633,-2.817c-1.732,0 -3.167,0.888 -4.659,2.324l0,10.375l-2.394,0l0,-20.201Z" style="fill:#231f20;fill-rule:nonzero;"/><path d="M363.461,75.981c-0.197,-2.562 -1.422,-4.307 -3.801,-4.307c-1.929,0 -3.759,1.337 -4.097,4.307l7.898,0Zm-10.305,1.225c0,-5.236 3.506,-7.503 6.532,-7.503c3.421,0 6.011,2.407 6.011,7.616l0,0.492l-10.191,0c0.084,3.252 1.97,4.998 4.349,4.998c2.069,0 3.252,-0.845 4.35,-2.337l1.352,1.197c-1.324,1.914 -3.154,3.054 -5.871,3.054c-3.42,0 -6.532,-2.477 -6.532,-7.517Z" style="fill:#231f20;fill-rule:nonzero;"/><path d="M369.824,69.999l2.351,0l0,2.688l0.042,0c1.056,-1.674 2.773,-2.984 5.574,-2.984l0.296,0l-0.169,2.183c-0.07,-0.03 -0.591,-0.03 -0.676,-0.03c-2.28,0 -3.998,1.198 -5.067,3.267l0,9.305l-2.351,0l0,-14.429Z" style="fill:#231f20;fill-rule:nonzero;"/><path d="M388.082,64.227l12.135,0l0,2.196l-9.728,0l0,6.504l7.152,0l0,2.168l-7.152,0l0,9.333l-2.407,0l0,-20.201Z" style="fill:#231f20;fill-rule:nonzero;"/><path d="M413.28,77.206c0,-2.998 -1.464,-5.477 -4.307,-5.477c-2.76,0 -4.364,2.239 -4.364,5.477c0,3.068 1.436,5.518 4.364,5.518c2.73,0 4.307,-2.196 4.307,-5.518Zm-11.036,0c0,-4.955 3.167,-7.503 6.729,-7.503c3.519,0 6.672,2.548 6.672,7.503c0,4.941 -3.153,7.517 -6.672,7.517c-3.534,0 -6.729,-2.576 -6.729,-7.517Z" style="fill:#231f20;fill-rule:nonzero;"/><path d="M419.756,69.999l2.379,0l0,2.168c1.253,-1.225 3.054,-2.464 5.406,-2.464c2.744,0 4.266,1.577 4.266,4.321l0,10.404l-2.366,0l0,-9.882c0,-1.929 -0.816,-2.817 -2.646,-2.817c-1.718,0 -3.154,0.888 -4.66,2.324l0,10.375l-2.379,0l0,-14.429Z" style="fill:#231f20;fill-rule:nonzero;"/><path d="M446.475,80.501l0,-6.617c-1.268,-1.422 -2.633,-2.182 -4.167,-2.182c-2.506,0 -4.111,1.773 -4.111,5.561c0,3.687 1.774,5.433 4.082,5.433c1.676,0 2.985,-0.887 4.196,-2.195Zm-10.643,-3.267c0,-5.011 2.633,-7.531 6.152,-7.531c1.76,0 3.393,0.872 4.491,2.126l0,-7.602l2.336,0l0,16.639c0,1.746 0.113,2.815 0.437,3.562l-2.449,0c-0.155,-0.479 -0.324,-1.324 -0.324,-2.056c-1.155,1.267 -2.605,2.281 -4.758,2.281c-3.309,0 -5.885,-2.379 -5.885,-7.419Z" style="fill:#231f20;fill-rule:nonzero;"/><path d="M452.584,82.246l1.408,-1.437c1.098,1.184 2.547,2 4.504,2c2.238,0 3.478,-0.789 3.478,-2.267c0,-1.449 -1.267,-1.998 -3.716,-2.562c-3.055,-0.746 -5.167,-1.548 -5.167,-4.349c0,-2.168 1.915,-3.928 5.053,-3.928c2.534,0 4.182,0.816 5.518,2.069l-1.225,1.563c-1.097,-1.014 -2.561,-1.717 -4.179,-1.717c-2.098,0 -2.929,0.914 -2.929,1.941c0,1.325 1.154,1.83 3.421,2.352c3.238,0.789 5.49,1.576 5.49,4.561c0,2.746 -2.492,4.238 -5.771,4.238c-2.591,0 -4.731,-1.057 -5.885,-2.464Z" style="fill:#231f20;fill-rule:nonzero;"/><path d="M206.063,101.967l-2.52,0l0,-1.927l2.52,0l0,-1.93c0,-2.434 1.288,-3.912 4.343,-3.912c0.401,0 1.119,0.084 1.337,0.084l0,1.914c-0.218,-0.057 -0.69,-0.084 -1.006,-0.084c-1.317,0 -2.323,0.465 -2.323,2.013l0,1.915l3.16,0l0,1.927l-3.16,0l0,12.486l-2.351,0l0,-12.486Z" style="fill:#231f20;fill-rule:nonzero;"/><path d="M222.294,95.972l2.435,0l0,2.576l-2.435,0l0,-2.576Zm-4.969,0l2.4,0l0,2.576l-2.4,0l0,-2.576Zm-2.351,14.483l0,-10.415l2.351,0l0,9.923c0,1.901 0.816,2.802 2.653,2.802c1.739,0 3.154,-0.901 4.653,-2.31l0,-10.415l2.379,0l0,14.413l-2.379,0l0,-2.153c-1.253,1.239 -3.055,2.436 -5.406,2.436c-2.752,0 -4.251,-1.563 -4.251,-4.281Z" style="fill:#231f20;fill-rule:nonzero;"/><path d="M231.838,100.04l2.351,0l0,2.688l0.057,0c1.069,-1.675 2.752,-2.984 5.567,-2.984l0.303,0l-0.162,2.181c-0.084,-0.028 -0.605,-0.028 -0.676,-0.028c-2.308,0 -4.019,1.197 -5.089,3.252l0,9.304l-2.351,0l0,-14.413Z" style="fill:#231f20;fill-rule:nonzero;"/><path d="M250.838,100.04l2.351,0l0,2.688l0.057,0c1.069,-1.675 2.752,-2.984 5.566,-2.984l0.304,0l-0.162,2.181c-0.084,-0.028 -0.605,-0.028 -0.676,-0.028c-2.308,0 -4.019,1.197 -5.089,3.252l0,9.304l-2.351,0l0,-14.413Z" style="fill:#231f20;fill-rule:nonzero;"/><path d="M270.864,106.022c-0.182,-2.563 -1.407,-4.322 -3.787,-4.322c-1.95,0 -3.78,1.337 -4.096,4.322l7.883,0Zm-10.29,1.224c0,-5.251 3.491,-7.502 6.531,-7.502c3.415,0 6.004,2.407 6.004,7.616l0,0.492l-10.185,0c0.085,3.252 1.957,4.983 4.336,4.983c2.077,0 3.26,-0.831 4.343,-2.337l1.366,1.211c-1.338,1.901 -3.168,3.055 -5.864,3.055c-3.42,0 -6.531,-2.479 -6.531,-7.518Z" style="fill:#231f20;fill-rule:nonzero;"/><path d="M286.074,104.981c0,-2.098 -1.308,-3.407 -3.645,-3.407c-2.239,0 -3.619,1.336 -3.619,3.407c0,2.082 1.451,3.363 3.647,3.363c2.224,0 3.617,-1.281 3.617,-3.363Zm1.365,11.064c0,-1.281 -0.957,-1.859 -3.998,-2.084l-2.73,-0.183c-0.281,-0.028 -0.549,-0.056 -0.816,-0.084c-1.379,0.492 -2.125,1.394 -2.125,2.379c0,1.435 1.505,2.154 5.082,2.154c2.871,0 4.587,-0.873 4.587,-2.182Zm-11.852,0.379c0,-1.477 0.999,-2.575 2.618,-3.195c-0.816,-0.394 -1.225,-0.971 -1.225,-1.83c0,-0.914 0.76,-1.717 1.803,-2.323c-1.394,-0.886 -2.224,-2.351 -2.224,-4.152c0,-3.027 2.435,-5.18 5.87,-5.18c1.788,0 3.265,0.604 4.264,1.492c0.887,-0.648 2.239,-1.196 3.422,-1.323l0,2.054c-0.789,0 -1.746,0.155 -2.591,0.479c0.451,0.648 0.732,1.506 0.732,2.478c0,3.111 -2.477,5.138 -5.827,5.138c-0.845,0 -1.549,-0.126 -2.295,-0.353c-0.591,0.268 -0.999,0.62 -0.999,1.114c0,0.605 0.465,0.886 1.998,1.013l2.928,0.239c3.675,0.253 5.533,1.436 5.533,3.745c0,2.731 -2.871,4.18 -7.053,4.18c-4.856,0 -6.954,-1.393 -6.954,-3.576Z" style="fill:#231f20;fill-rule:nonzero;"/><path d="M293.69,100.04l2.337,0l0,14.413l-2.337,0l0,-14.413Zm-0.055,-5.378l2.449,0l0,2.294l-2.449,0l0,-2.294Z" style="fill:#231f20;fill-rule:nonzero;"/><path d="M311.203,107.246c0,-2.998 -1.465,-5.49 -4.308,-5.49c-2.774,0 -4.364,2.252 -4.364,5.49c0,3.055 1.436,5.519 4.364,5.519c2.716,0 4.308,-2.21 4.308,-5.519Zm-11.037,0c0,-4.968 3.153,-7.502 6.729,-7.502c3.519,0 6.687,2.534 6.687,7.502c0,4.942 -3.168,7.518 -6.687,7.518c-3.534,0 -6.729,-2.576 -6.729,-7.518Z" style="fill:#231f20;fill-rule:nonzero;"/><path d="M317.678,100.04l2.365,0l0,2.167c1.267,-1.239 3.068,-2.463 5.406,-2.463c2.759,0 4.279,1.577 4.279,4.307l0,10.402l-2.351,0l0,-9.867c0,-1.915 -0.83,-2.83 -2.66,-2.83c-1.718,0 -3.168,0.915 -4.674,2.322l0,10.375l-2.365,0l0,-14.413Z" style="fill:#231f20;fill-rule:nonzero;"/><path d="M343.185,110.723l0,-4.054c-5.49,0.887 -7.32,2.224 -7.32,4.027c0,1.379 0.93,2.125 2.436,2.125c1.9,0 3.548,-0.802 4.884,-2.098Zm-9.642,0.311c0,-2.901 2.492,-4.984 9.642,-5.983l0,-0.676c0,-1.802 -0.957,-2.675 -2.73,-2.675c-2.182,0 -3.801,0.971 -5.209,2.197l-1.238,-1.479c1.661,-1.52 3.828,-2.674 6.701,-2.674c3.434,0 4.8,1.801 4.8,4.814l0,6.349c0,1.746 0.098,2.815 0.408,3.546l-2.394,0c-0.197,-0.604 -0.338,-1.168 -0.338,-1.984c-1.604,1.492 -3.406,2.211 -5.574,2.211c-2.477,0 -4.068,-1.324 -4.068,-3.646Z" style="fill:#231f20;fill-rule:nonzero;"/><rect x="350.352" y="94.254" width="2.35" height="20.199" style="fill:#231f20;fill-rule:nonzero;"/><path d="M367.174,106.022c-0.197,-2.563 -1.436,-4.322 -3.801,-4.322c-1.943,0 -3.773,1.337 -4.097,4.322l7.898,0Zm-10.291,1.224c0,-5.251 3.477,-7.502 6.517,-7.502c3.408,0 6.012,2.407 6.012,7.616l0,0.492l-10.178,0c0.071,3.252 1.957,4.983 4.336,4.983c2.083,0 3.238,-0.831 4.336,-2.337l1.379,1.211c-1.351,1.901 -3.182,3.055 -5.885,3.055c-3.406,0 -6.517,-2.479 -6.517,-7.518Z" style="fill:#231f20;fill-rule:nonzero;"/><path d="M380.125,94.268l12.388,0l0,2.196l-9.995,0l0,6.306l7.433,0l0,2.154l-7.433,0l0,7.361l10.558,0l0,2.168l-12.951,0l0,-20.185Z" style="fill:#231f20;fill-rule:nonzero;"/><path d="M396.961,100.04l2.365,0l0,2.167c1.268,-1.239 3.069,-2.463 5.406,-2.463c2.758,0 4.25,1.577 4.25,4.307l0,10.402l-2.336,0l0,-9.867c0,-1.915 -0.816,-2.83 -2.646,-2.83c-1.718,0 -3.168,0.915 -4.674,2.322l0,10.375l-2.365,0l0,-14.413Z" style="fill:#231f20;fill-rule:nonzero;"/><path d="M414.783,110.963l0,-8.996l-2.519,0l0,-1.927l2.519,0l0,-5.125l2.336,0l0,5.125l3.745,0l0,1.927l-3.745,0l0,8.488c0,1.522 0.493,2.282 2.238,2.282c0.522,0 1.084,-0.084 1.479,-0.184l0,1.93c-0.422,0.084 -1.309,0.168 -2.055,0.168c-3.027,0 -3.998,-1.168 -3.998,-3.688Z" style="fill:#231f20;fill-rule:nonzero;"/><path d="M423.75,100.04l2.435,0l1.887,6.77c0.492,1.774 0.83,2.942 1.267,4.801l0.055,0c0.48,-2.013 0.761,-3.056 1.24,-4.829l1.844,-6.742l2.041,0l1.887,6.882c0.492,1.733 0.76,2.802 1.21,4.689l0.057,0c0.478,-1.902 0.76,-2.929 1.239,-4.632l1.971,-6.939l2.223,0l-4.406,14.413l-2.182,0l-3.069,-11.275l-0.056,0l-3.083,11.275l-2.154,0l-4.406,-14.413Z" style="fill:#231f20;fill-rule:nonzero;"/><path d="M446.598,100.04l2.351,0l0,14.413l-2.351,0l0,-14.413Zm-0.057,-5.378l2.464,0l0,2.294l-2.464,0l0,-2.294Z" style="fill:#231f20;fill-rule:nonzero;"/><path d="M453.088,107.246c0,-5.279 3.392,-7.502 6.615,-7.502c3.252,0 4.773,1.915 5.646,4.026l-1.999,0.83c-0.705,-1.858 -1.817,-2.871 -3.703,-2.871c-2.069,0 -4.18,1.449 -4.18,5.517c0,3.547 1.689,5.547 4.124,5.547c1.83,0 2.956,-0.789 3.871,-2.886l1.942,0.76c-1.125,2.394 -2.787,4.097 -5.898,4.097c-3.336,0 -6.418,-2.576 -6.418,-7.518Z" style="fill:#231f20;fill-rule:nonzero;"/><path d="M469.191,94.268l2.352,0l0,12.978l6.447,-7.206l2.66,0l-4.715,5.165l5.237,9.248l-2.506,0l-4.252,-7.502l-2.871,3.083l0,4.419l-2.352,0l0,-20.185Z" style="fill:#231f20;fill-rule:nonzero;"/><rect x="484.747" y="94.254" width="2.337" height="20.199" style="fill:#231f20;fill-rule:nonzero;"/><path d="M491.898,110.455l0,-10.415l2.366,0l0,9.923c0,1.901 0.801,2.802 2.631,2.802c1.746,0 3.167,-0.901 4.674,-2.31l0,-10.415l2.379,0l0,14.413l-2.379,0l0,-2.153c-1.253,1.239 -3.054,2.436 -5.405,2.436c-2.76,0 -4.266,-1.563 -4.266,-4.281Z" style="fill:#231f20;fill-rule:nonzero;"/><path d="M508.777,100.04l2.379,0l0,2.167c1.252,-1.239 3.055,-2.463 5.404,-2.463c2.76,0 4.267,1.577 4.267,4.307l0,10.402l-2.366,0l0,-9.867c0,-1.915 -0.802,-2.83 -2.631,-2.83c-1.746,0 -3.182,0.915 -4.674,2.322l0,10.375l-2.379,0l0,-14.413Z" style="fill:#231f20;fill-rule:nonzero;"/><path d="M534.468,104.981c0,-2.098 -1.324,-3.407 -3.632,-3.407c-2.238,0 -3.632,1.336 -3.632,3.407c0,2.082 1.45,3.363 3.66,3.363c2.21,0 3.604,-1.281 3.604,-3.363Zm1.366,11.064c0,-1.281 -0.958,-1.859 -3.998,-2.084l-2.717,-0.183c-0.282,-0.028 -0.563,-0.056 -0.816,-0.084c-1.395,0.492 -2.141,1.394 -2.141,2.379c0,1.435 1.506,2.154 5.082,2.154c2.871,0 4.59,-0.873 4.59,-2.182Zm-11.855,0.379c0,-1.477 1.015,-2.575 2.634,-3.195c-0.831,-0.394 -1.239,-0.971 -1.239,-1.83c0,-0.914 0.761,-1.717 1.802,-2.323c-1.394,-0.886 -2.225,-2.351 -2.225,-4.152c0,-3.027 2.449,-5.18 5.885,-5.18c1.773,0 3.252,0.604 4.252,1.492c0.887,-0.648 2.252,-1.196 3.433,-1.323l0,2.054c-0.801,0 -1.745,0.155 -2.603,0.479c0.465,0.648 0.732,1.506 0.732,2.478c0,3.111 -2.45,5.138 -5.814,5.138c-0.845,0 -1.563,-0.126 -2.309,-0.353c-0.592,0.268 -1,0.62 -1,1.114c0,0.605 0.465,0.886 2.014,1.013l2.928,0.239c3.66,0.253 5.518,1.436 5.518,3.745c0,2.731 -2.872,4.18 -7.038,4.18c-4.871,0 -6.97,-1.393 -6.97,-3.576Z" style="fill:#231f20;fill-rule:nonzero;"/><rect x="205.357" y="33.952" width="2.244" height="18.872" style="fill:#074ea2;fill-rule:nonzero;"/><path d="M212.12,39.359l2.218,0l0,2.014c1.174,-1.147 2.857,-2.295 5.05,-2.295c2.575,0 3.978,1.479 3.978,4.03l0,9.716l-2.194,0l0,-9.232c0,-1.785 -0.764,-2.627 -2.473,-2.627c-1.607,0 -2.958,0.842 -4.361,2.168l0,9.691l-2.218,0l0,-13.465Z" style="fill:#074ea2;fill-rule:nonzero;"/><path d="M225.44,39.359l2.346,0l3.774,10.915l0.051,0l3.724,-10.915l2.193,0l-4.922,13.516l-2.219,0l-4.947,-13.516Z" style="fill:#074ea2;fill-rule:nonzero;"/><path d="M248.224,44.944c-0.179,-2.398 -1.326,-4.03 -3.545,-4.03c-1.811,0 -3.52,1.25 -3.826,4.03l7.371,0Zm-9.615,1.148c0,-4.896 3.264,-7.014 6.095,-7.014c3.189,0 5.611,2.244 5.611,7.116l0,0.459l-9.513,0c0.077,3.035 1.837,4.667 4.055,4.667c1.938,0 3.036,-0.791 4.055,-2.194l1.275,1.122c-1.249,1.786 -2.958,2.857 -5.483,2.857c-3.187,0 -6.095,-2.321 -6.095,-7.013Z" style="fill:#074ea2;fill-rule:nonzero;"/><path d="M252.234,50.784l1.327,-1.326c1.02,1.097 2.372,1.862 4.208,1.862c2.092,0 3.239,-0.741 3.239,-2.118c0,-1.351 -1.174,-1.861 -3.469,-2.396c-2.856,-0.689 -4.82,-1.454 -4.82,-4.055c0,-2.04 1.785,-3.673 4.718,-3.673c2.371,0 3.901,0.766 5.152,1.939l-1.148,1.454c-1.021,-0.944 -2.397,-1.608 -3.902,-1.608c-1.963,0 -2.729,0.867 -2.729,1.811c0,1.25 1.072,1.709 3.189,2.193c3.033,0.74 5.126,1.48 5.126,4.259c0,2.576 -2.322,3.953 -5.382,3.953c-2.423,0 -4.411,-0.969 -5.509,-2.295Z" style="fill:#074ea2;fill-rule:nonzero;"/><path d="M266.982,49.56l0,-8.39l-2.346,0l0,-1.811l2.346,0l0,-4.795l2.193,0l0,4.795l3.494,0l0,1.811l-3.494,0l0,7.905c0,1.429 0.46,2.143 2.092,2.143c0.484,0 1.02,-0.077 1.377,-0.179l0,1.811c-0.382,0.076 -1.224,0.153 -1.913,0.153c-2.831,0 -3.749,-1.096 -3.749,-3.443Z" style="fill:#074ea2;fill-rule:nonzero;"/><path d="M275.785,39.359l2.195,0l0,13.465l-2.195,0l0,-13.465Zm-0.051,-5.024l2.297,0l0,2.141l-2.297,0l0,-2.141Z" style="fill:#074ea2;fill-rule:nonzero;"/><path d="M282.98,49.56l0,-8.39l-2.345,0l0,-1.811l2.345,0l0,-4.795l2.196,0l0,4.795l3.492,0l0,1.811l-3.492,0l0,7.905c0,1.429 0.459,2.143 2.09,2.143c0.484,0 1.019,-0.077 1.377,-0.179l0,1.811c-0.383,0.076 -1.225,0.153 -1.913,0.153c-2.832,0 -3.75,-1.096 -3.75,-3.443Z" style="fill:#074ea2;fill-rule:nonzero;"/><path d="M291.785,39.359l2.192,0l0,13.465l-2.192,0l0,-13.465Zm-0.051,-5.024l2.295,0l0,2.141l-2.295,0l0,-2.141Z" style="fill:#074ea2;fill-rule:nonzero;"/><path d="M307.549,46.092c0,-2.806 -1.352,-5.127 -4.029,-5.127c-2.577,0 -4.055,2.092 -4.055,5.127c0,2.856 1.326,5.151 4.055,5.151c2.548,0 4.029,-2.065 4.029,-5.151Zm-10.303,0c0,-4.642 2.957,-7.014 6.274,-7.014c3.289,0 6.248,2.372 6.248,7.014c0,4.615 -2.959,7.013 -6.248,7.013c-3.29,0 -6.274,-2.398 -6.274,-7.013Z" style="fill:#074ea2;fill-rule:nonzero;"/><path d="M312.887,39.359l2.218,0l0,2.014c1.174,-1.147 2.858,-2.295 5.051,-2.295c2.574,0 3.979,1.479 3.979,4.03l0,9.716l-2.196,0l0,-9.232c0,-1.785 -0.763,-2.627 -2.472,-2.627c-1.608,0 -2.957,0.842 -4.362,2.168l0,9.691l-2.218,0l0,-13.465Z" style="fill:#074ea2;fill-rule:nonzero;"/><path d="M334.016,39.359l2.193,0l0,13.465l-2.193,0l0,-13.465Zm-0.051,-5.024l2.295,0l0,2.141l-2.295,0l0,-2.141Z" style="fill:#074ea2;fill-rule:nonzero;"/><path d="M340.242,39.359l2.219,0l0,2.014c1.174,-1.147 2.855,-2.295 5.049,-2.295c2.576,0 3.978,1.479 3.978,4.03l0,9.716l-2.193,0l0,-9.232c0,-1.785 -0.764,-2.627 -2.473,-2.627c-1.607,0 -2.959,0.842 -4.361,2.168l0,9.691l-2.219,0l0,-13.465Z" style="fill:#074ea2;fill-rule:nonzero;"/><path d="M361.09,49.075l0,-9.716l2.193,0l0,9.257c0,1.786 0.764,2.627 2.475,2.627c1.629,0 2.957,-0.841 4.361,-2.168l0,-9.716l2.217,0l0,13.465l-2.217,0l0,-2.014c-1.174,1.147 -2.857,2.269 -5.051,2.269c-2.574,0 -3.978,-1.453 -3.978,-4.004Z" style="fill:#074ea2;fill-rule:nonzero;"/><path d="M376.219,39.359l2.22,0l0,2.014c1.174,-1.147 2.856,-2.295 5.049,-2.295c2.576,0 3.979,1.479 3.979,4.03l0,9.716l-2.194,0l0,-9.232c0,-1.785 -0.763,-2.627 -2.472,-2.627c-1.608,0 -2.961,0.842 -4.362,2.168l0,9.691l-2.22,0l0,-13.465Z" style="fill:#074ea2;fill-rule:nonzero;"/><path d="M390.254,50.784l1.326,-1.326c1.022,1.097 2.371,1.862 4.209,1.862c2.09,0 3.236,-0.741 3.236,-2.118c0,-1.351 -1.172,-1.861 -3.466,-2.396c-2.856,-0.689 -4.821,-1.454 -4.821,-4.055c0,-2.04 1.785,-3.673 4.719,-3.673c2.371,0 3.9,0.766 5.15,1.939l-1.146,1.454c-1.022,-0.944 -2.397,-1.608 -3.902,-1.608c-1.963,0 -2.729,0.867 -2.729,1.811c0,1.25 1.07,1.709 3.188,2.193c3.035,0.74 5.127,1.48 5.127,4.259c0,2.576 -2.323,3.953 -5.383,3.953c-2.422,0 -4.41,-0.969 -5.508,-2.295Z" style="fill:#074ea2;fill-rule:nonzero;"/><path d="M412.906,44.944c-0.179,-2.398 -1.328,-4.03 -3.545,-4.03c-1.81,0 -3.519,1.25 -3.826,4.03l7.371,0Zm-9.615,1.148c0,-4.896 3.264,-7.014 6.096,-7.014c3.187,0 5.609,2.244 5.609,7.116l0,0.459l-9.512,0c0.076,3.035 1.836,4.667 4.055,4.667c1.938,0 3.035,-0.791 4.057,-2.194l1.273,1.122c-1.25,1.786 -2.959,2.857 -5.482,2.857c-3.188,0 -6.096,-2.321 -6.096,-7.013Z" style="fill:#074ea2;fill-rule:nonzero;"/><path d="M418.141,39.359l2.195,0l0,2.499l0.049,0c0.996,-1.555 2.578,-2.78 5.203,-2.78l0.281,0l-0.152,2.041c-0.078,-0.026 -0.563,-0.026 -0.639,-0.026c-2.143,0 -3.748,1.122 -4.742,3.035l0,8.696l-2.195,0l0,-13.465Z" style="fill:#074ea2;fill-rule:nonzero;"/><path d="M436.506,44.944c-0.18,-2.398 -1.326,-4.03 -3.545,-4.03c-1.811,0 -3.52,1.25 -3.824,4.03l7.369,0Zm-9.615,1.148c0,-4.896 3.265,-7.014 6.095,-7.014c3.188,0 5.612,2.244 5.612,7.116l0,0.459l-9.514,0c0.076,3.035 1.836,4.667 4.055,4.667c1.937,0 3.035,-0.791 4.056,-2.194l1.276,1.122c-1.25,1.786 -2.959,2.857 -5.485,2.857c-3.187,0 -6.095,-2.321 -6.095,-7.013Z" style="fill:#074ea2;fill-rule:nonzero;"/><path d="M446.281,51.243l11.045,-15.404l-10.33,0l0,-1.887l13.082,0l0,1.633l-10.965,15.378l10.965,0l0,1.861l-13.797,0l0,-1.581Z" style="fill:#074ea2;fill-rule:nonzero;"/><path d="M462.768,49.075l0,-9.716l2.193,0l0,9.257c0,1.786 0.766,2.627 2.473,2.627c1.632,0 2.959,-0.841 4.363,-2.168l0,-9.716l2.217,0l0,13.465l-2.217,0l0,-2.014c-1.174,1.147 -2.858,2.269 -5.051,2.269c-2.576,0 -3.978,-1.453 -3.978,-4.004Z" style="fill:#074ea2;fill-rule:nonzero;"/><path d="M477.898,33.952l2.194,0l0,12.14l6.017,-6.733l2.502,0l-4.414,4.82l4.897,8.645l-2.346,0l-3.979,-7.013l-2.677,2.882l0,4.131l-2.194,0l0,-18.872Z" style="fill:#074ea2;fill-rule:nonzero;"/><path d="M491.549,49.075l0,-9.716l2.193,0l0,9.257c0,1.786 0.766,2.627 2.473,2.627c1.633,0 2.959,-0.841 4.363,-2.168l0,-9.716l2.217,0l0,13.465l-2.217,0l0,-2.014c-1.174,1.147 -2.857,2.269 -5.051,2.269c-2.576,0 -3.978,-1.453 -3.978,-4.004Z" style="fill:#074ea2;fill-rule:nonzero;"/><path d="M506.678,39.359l2.22,0l0,2.014c1.174,-1.147 2.856,-2.295 5.05,-2.295c2.575,0 3.978,1.479 3.978,4.03l0,9.716l-2.194,0l0,-9.232c0,-1.785 -0.763,-2.627 -2.472,-2.627c-1.608,0 -2.959,0.842 -4.362,2.168l0,9.691l-2.22,0l0,-13.465Z" style="fill:#074ea2;fill-rule:nonzero;"/><path d="M522.728,41.17l-2.348,0l0,-1.811l2.348,0l0,-1.811c0,-2.269 1.198,-3.646 4.055,-3.646c0.383,0 1.045,0.075 1.248,0.075l0,1.787c-0.203,-0.052 -0.637,-0.078 -0.941,-0.078c-1.227,0 -2.168,0.434 -2.168,1.888l0,1.785l2.959,0l0,1.811l-2.959,0l0,11.654l-2.194,0l0,-11.654Z" style="fill:#074ea2;fill-rule:nonzero;"/><path d="M531.43,49.56l0,-8.39l-2.348,0l0,-1.811l2.348,0l0,-4.795l2.191,0l0,4.795l3.496,0l0,1.811l-3.496,0l0,7.905c0,1.429 0.459,2.143 2.092,2.143c0.486,0 1.021,-0.077 1.377,-0.179l0,1.811c-0.383,0.076 -1.223,0.153 -1.912,0.153c-2.83,0 -3.748,-1.096 -3.748,-3.443Z" style="fill:#074ea2;fill-rule:nonzero;"/></g></svg>