<?xml version="1.0" encoding="UTF-8" standalone="no"?><!DOCTYPE svg PUBLIC "-//W3C//DTD SVG 1.1//EN" "http://www.w3.org/Graphics/SVG/1.1/DTD/svg11.dtd"><svg width="100%" height="100%" viewBox="0 0 578 83" version="1.1" xmlns="http://www.w3.org/2000/svg" xmlns:xlink="http://www.w3.org/1999/xlink" xml:space="preserve" xmlns:serif="http://www.serif.com/" style="fill-rule:evenodd;clip-rule:evenodd;stroke-linejoin:round;stroke-miterlimit:2;"><g><path d="M0,78.2l56.3,0l0,-13.199l-36.3,0c0.4,-4.501 7.8,-10.201 18.8,-17.301c14.7,-9.3 17,-16.9 17,-25.3c-0.1,-13.5 -9.5,-22.2 -25.9,-22.2c-13.601,0 -22.6,6.5 -29.2,16.6l11.9,8.4c4.4,-7 10.8,-11 16.8,-11c6.4,0 10,3.6 10,9.3c0,7.8 -4.7,10.7 -16.5,18.2c-20.2,13 -22.9,23.7 -22.9,34.8l0,1.7Zm96,1.4c20.2,0 31.7,-15.8 31.7,-39.7c0.1,-23.9 -11.5,-39.7 -31.7,-39.7c-20,0 -31.801,15.8 -31.801,39.7c0,23.9 11.801,39.7 31.801,39.7Zm0,-13.1c-9.6,0 -15.1,-9.1 -15.1,-26.6c0,-17.5 5.2,-26.3 15.1,-26.3c9.6,0 15.1,8.8 15.1,26.3c0,17.5 -5.2,26.6 -15.1,26.6Z" style="fill:#0a4f9d;fill-rule:nonzero;"/><path d="M259.6,78.2c-2.301,-19.5 -13.4,-32 -31.3,-32c-17.8,0 -29.1,12.5 -31.4,32l16.7,0c1.4,-12.4 6.3,-18.6 14.7,-18.6c8.1,0 13.2,6.2 14.7,18.6l16.6,0Zm-73.3,0c1.3,-3.2 1.7,-6.4 1.7,-9.8c0,-13.5 -9.4,-22.2 -25.8,-22.2c-13.5,0 -22.5,6.5 -29.2,16.6l11.9,8.4c4.4,-7 10.8,-11 16.8,-11c6.4,0 10,3.6 10,9.3c0,3.6 -1,6.2 -3.3,8.7l17.9,0Z" style="fill:#159f4e;fill-rule:nonzero;"/><path d="M231.2,1.6l0,11.6l-19.7,0l8,-11.5l-16.5,0l-8.9,12.5l0,12.2l37.1,0l0,13.5l16.2,0l0,-13.5l13.5,0l0,-13.2l-13.5,0l0,-11.6l-16.2,0Zm-78.1,0l0,25.1l-13.9,0l0,13.1l43.9,0l0,-13l-13.8,0l0,-25.2l-16.2,0Z" style="fill:#ec1d26;fill-rule:nonzero;"/><path d="M289.6,19.7l12.7,0l0,-3.2l-8.8,0l0,-4.5l6,0l0,-3.2l-6,0l0,-3.8l8.3,0l0,-3.4l-12.3,0l0,18.1l0.1,0Zm15.7,0l4,0l0,-7.2l5.7,0l0,-3.1l-5.7,0l0,-4.4l8,0l0,-3.4l-11.9,0l0,18.1l-0.1,0Zm14.5,0l3.9,0l0,-6.8l2.3,0l3.8,6.8l4.2,0l-4,-7.3c2.4,-0.7 3.8,-2.3 3.8,-5.1c0,-4 -2.7,-5.6 -7.1,-5.6l-6.8,0l0,18l-0.1,0Zm3.9,-9.9l0,-4.9l2.7,0c2.3,0 3.4,0.7 3.4,2.4c0,1.8 -1.1,2.5 -3.4,2.5l-2.7,0Zm13.4,9.9l12.7,0l0,-3.2l-8.8,0l0,-4.5l6,0l0,-3.2l-6,0l0,-3.8l8.3,0l0,-3.4l-12.3,0l0,18.1l0.1,0Zm16.1,0l4.2,0l0,-3.8l-4.2,0l0,3.8Zm7.9,0l3.7,0l0,-11.6l7.9,11.6l3.7,0l0,-18l-3.7,0l0,11.5l-7.6,-11.5l-4,0l0,18Zm19.3,0l3.9,0l0,-6.8l2.3,0l3.8,6.8l4.2,0l-4,-7.3c2.4,-0.7 3.8,-2.3 3.8,-5.1c0,-4 -2.7,-5.6 -7.1,-5.6l-6.8,0l0,18l-0.1,0Zm3.9,-9.9l0,-4.9l2.7,0c2.3,0 3.4,0.7 3.4,2.4c0,1.8 -1.1,2.5 -3.4,2.5l-2.7,0Zm16.6,9.9l3.4,0l3,-12.6l2.9,12.6l3.4,0l4.7,-18l-3.7,0l-1.8,8.3c-0.3,1.5 -0.6,2.2 -0.8,3.8c-0.2,-1.6 -0.5,-2.4 -0.9,-3.9l-2,-8.3l-3.7,0l-1.8,8.2c-0.3,1.3 -0.6,2.4 -0.8,3.9l-0.1,0c-0.2,-1.5 -0.5,-2.6 -0.9,-4l-1.9,-8.2l-4,0l5,18.2Z" style="fill-rule:nonzero;"/><path d="M293.5,78.4c1.9,0 3.5,-1 4.9,-2.4l0,2.2l1.2,0l0,-12.8l-1.2,0l0,9.6c-1.6,1.5 -3.1,2.4 -4.8,2.4c-1.9,0 -2.8,-0.9 -2.8,-2.9l0,-9.1l-1.2,0l0,9.2c0,2.4 1.2,3.8 3.9,3.8Zm10.3,-0.2l1.2,0l0,-9.6c1.6,-1.5 3.1,-2.4 4.8,-2.4c1.9,0 2.8,0.9 2.8,2.9l0,9.1l1.2,0l0,-9.2c0,-2.3 -1.2,-3.8 -3.9,-3.8c-1.9,0 -3.5,1 -4.9,2.4l0,-2.099l-1.2,0l0,12.699Zm18.8,0.2c1.9,0 3.3,-1 4.3,-2.1c0,0.7 0.1,1.5 0.3,1.9l1.3,0c-0.3,-0.7 -0.4,-1.6 -0.4,-3.2l0,-14.8l-1.1,0l0,7.1c-1,-1.1 -2.5,-2.1 -4.3,-2.1c-3,0 -5.4,2.2 -5.4,6.6c0,4.5 2.4,6.6 5.3,6.6Zm0.1,-1c-2.2,0 -4.2,-1.7 -4.2,-5.6c0,-3.9 1.9,-5.6 4.1,-5.6c1.6,0 2.9,0.8 4.4,2.3l0,6.6c-1.4,1.4 -2.6,2.3 -4.3,2.3Zm16.1,0.8l6.6,0c4.3,0 6.1,-2.2 6.1,-4.9c0,-2.5 -1.9,-4 -4.1,-4.4c1.9,-0.4 3.5,-1.8 3.5,-4.1c0,-2.7 -1.8,-4.5 -6,-4.5l-6,0l0,17.9l-0.1,0Zm1.2,-9.8l0,-7.1l4.8,0c3.3,0 4.8,1.1 4.8,3.5c0,2.4 -1.8,3.6 -4.9,3.6l-4.7,0Zm0,8.6l0,-7.6l4.9,0c3.3,0 5.4,1.2 5.4,3.8c0,2.4 -1.5,3.7 -4.8,3.7l-5.5,0l0,0.1Zm19.9,1.4c2.5,0 4,-1.2 5,-3.1l-0.8,-0.5c-1,1.7 -2.1,2.6 -4.1,2.6c-2.4,0 -4.3,-2.1 -4.3,-5.6l9.3,0l0,-0.2c0,-4 -2,-6.5 -5,-6.5c-2.7,0 -5.4,2.2 -5.4,6.6c-0.1,4.3 2.4,6.7 5.3,6.7Zm-4.2,-7.5c0.3,-3.2 2.2,-4.7 4.2,-4.7c2.4,0 3.7,2.1 3.9,4.7l-8.1,0Zm16.8,7.5c2.9,0 4.8,-1.4 4.8,-3.5c0,-2.3 -1.3,-3.1 -4.9,-4c-2.5,-0.6 -3.2,-1.2 -3.2,-2.5c0,-1.1 0.9,-2.1 3,-2.1c1.7,0 2.8,0.6 3.8,1.6l0.8,-0.8c-1.1,-1.1 -2.4,-1.9 -4.5,-1.9c-2.7,0 -4.2,1.6 -4.2,3.2c0,2 1.1,2.8 4.3,3.6c2.9,0.7 3.8,1.3 3.8,2.9c0,1.6 -1.2,2.5 -3.6,2.5c-1.8,0 -3,-0.8 -4,-2l-0.8,0.7c0.9,1.3 2.5,2.3 4.7,2.3Zm13,0c2.4,0 3.9,-1.3 4.9,-3.5l-0.9,-0.5c-1,1.9 -2,2.9 -3.9,2.9c-2.3,0 -4.2,-2.1 -4.2,-5.6c0,-4.1 2.3,-5.6 4.3,-5.6c2,0 3,1.1 3.8,2.9l1,-0.5c-0.8,-1.8 -2.2,-3.4 -4.7,-3.4c-2.9,0 -5.5,2.2 -5.5,6.6c-0.1,4.2 2.3,6.7 5.2,6.7Zm8.3,-0.2l1.2,0l0,-9.6c1.6,-1.5 3.1,-2.4 4.8,-2.4c1.9,0 2.8,0.9 2.8,2.9l0,9.1l1.2,0l0,-9.2c0,-2.3 -1.2,-3.8 -3.9,-3.8c-1.9,0 -3.5,1 -4.9,2.4l0,-7.4l-1.2,0l0,18Zm20.2,-14.2l1.6,0l0,-1.6l-1.6,0l0,1.6Zm-4,0l1.6,0l0,-1.6l-1.6,0l0,1.6Zm0.7,14.4c1.9,0 3.6,-0.8 5.2,-2.1c0,0.7 0.1,1.4 0.3,1.9l1.2,0c-0.3,-0.7 -0.4,-1.6 -0.4,-3.2l0,-6c0,-2.4 -1.3,-3.9 -3.9,-3.9c-2.4,0 -4.1,0.9 -5.6,2.4l0.7,0.7c1.4,-1.3 2.8,-2.1 4.9,-2.1c1.7,0 2.8,1 2.8,2.9l0,0.8c-6.7,1.1 -8.8,2.9 -8.8,5.4c0,2 1.3,3.2 3.6,3.2Zm0.1,-1c-1.6,0 -2.5,-0.8 -2.5,-2.2c0,-1.8 1.4,-3.3 7.6,-4.4l0,4.4c-1.5,1.3 -3.2,2.2 -5.1,2.2Zm11.2,0.8l1.2,0l0,-11.7l2.8,0l0,-0.999l-2.8,0l0,-2.301c0,-1.4 0.9,-1.9 2.2,-1.9l0.8,0l0,-1.1l-0.6,0c-2.1,0 -3.5,0.9 -3.5,3.1l0,2.201l-2.2,0l0,0.999l2.2,0l0,11.7l-0.1,0Zm11.6,0.1c0.5,0 1,-0.1 1.4,-0.1l0,-1.1c-0.4,0.1 -0.8,0.2 -1.3,0.2c-1.6,0 -2.1,-0.8 -2.1,-2.1l0,-8.7l3.3,0l0,-0.999l-3.3,0l0,-4.601l-1.2,0l0,4.601l-2.2,0l0,0.999l2.2,0l0,8.9c0.1,2.1 1.1,2.9 3.2,2.9Zm4.6,-16.1l1.3,0l0,-1.5l-1.3,0l0,1.5Zm0.1,16l1.2,0l0,-12.8l-1.2,0l0,12.8Zm10.1,4.8c3.3,0 5.6,-1.3 5.6,-3.5c0,-1.9 -1.6,-2.9 -4.2,-3.2l-3,-0.3c-1.6,-0.1 -2,-0.5 -2,-1c0,-0.5 0.5,-0.9 1.1,-1.2c0.7,0.3 1.4,0.4 2.2,0.4c2.6,0 4.9,-1.7 4.9,-4.5c0,-1.1 -0.3,-2 -0.9,-2.7c0.7,-0.3 1.6,-0.5 2.4,-0.5l0,-1.3c-1,0.1 -2.2,0.6 -2.9,1.1c-0.9,-0.799 -2.1,-1.299 -3.5,-1.299c-2.7,0 -4.9,1.899 -4.9,4.599c0,1.6 0.7,2.9 1.9,3.7c-0.9,0.4 -1.5,1 -1.5,1.7c0,0.8 0.4,1.3 1.2,1.6c-1.6,0.6 -2.4,1.6 -2.4,3c0,2.2 1.9,3.4 6,3.4Zm-0.3,-9.7c-2.3,0 -3.8,-1.4 -3.8,-3.5c0,-2.1 1.5,-3.6 3.7,-3.6c2.4,0 3.8,1.4 3.8,3.6c0,2.1 -1.5,3.5 -3.7,3.5Zm0.3,8.7c-3.4,0 -4.9,-0.9 -4.9,-2.3c0,-1.1 0.8,-2.1 2.5,-2.6c0.2,0 0.4,0 0.6,0.1l2.6,0.2c2.5,0.2 3.6,0.9 3.6,2.3c0.1,1.3 -1.6,2.3 -4.4,2.3Zm12.9,-3.6c1.9,0 3.5,-1 4.9,-2.4l0,2.2l1.2,0l0,-12.8l-1.2,0l0,9.6c-1.6,1.5 -3.1,2.4 -4.8,2.4c-1.9,0 -2.8,-0.9 -2.8,-2.9l0,-9.1l-1.2,0l0,9.2c0,2.4 1.2,3.8 3.9,3.8Zm10.3,-0.2l1.2,0l0,-9.6c1.6,-1.5 3.1,-2.4 4.8,-2.4c1.9,0 2.8,0.9 2.8,2.9l0,9.1l1.2,0l0,-9.2c0,-2.3 -1.2,-3.8 -3.9,-3.8c-1.9,0 -3.5,1 -4.9,2.4l0,-2.099l-1.2,0l0,12.699Zm18.8,4.8c3.3,0 5.6,-1.3 5.6,-3.5c0,-1.9 -1.6,-2.9 -4.2,-3.2l-3,-0.3c-1.6,-0.1 -2,-0.5 -2,-1c0,-0.5 0.5,-0.9 1.1,-1.2c0.7,0.3 1.4,0.4 2.2,0.4c2.6,0 4.9,-1.7 4.9,-4.5c0,-1.1 -0.3,-2 -0.9,-2.7c0.7,-0.3 1.6,-0.5 2.4,-0.5l0,-1.3c-1,0.1 -2.2,0.6 -2.9,1.1c-0.9,-0.799 -2.1,-1.299 -3.5,-1.299c-2.7,0 -4.9,1.899 -4.9,4.599c0,1.6 0.7,2.9 1.9,3.7c-0.9,0.4 -1.5,1 -1.5,1.7c0,0.8 0.4,1.3 1.2,1.6c-1.6,0.6 -2.4,1.6 -2.4,3c0,2.2 1.9,3.4 6,3.4Zm-0.3,-9.7c-2.3,0 -3.8,-1.4 -3.8,-3.5c0,-2.1 1.5,-3.6 3.7,-3.6c2.4,0 3.8,1.4 3.8,3.6c0,2.1 -1.4,3.5 -3.7,3.5Zm0.3,8.7c-3.4,0 -4.9,-0.9 -4.9,-2.3c0,-1.1 0.8,-2.1 2.5,-2.6c0.2,0 0.4,0 0.6,0.1l2.6,0.2c2.5,0.2 3.6,0.9 3.6,2.3c0.1,1.3 -1.6,2.3 -4.4,2.3Z" style="fill-rule:nonzero;"/><path d="M289.6,48.3l1.2,0l0,-17.9l-1.2,0l0,17.9Zm6,0l1.2,0l0,-9.6c1.6,-1.5 3.1,-2.4 4.8,-2.4c1.9,0 2.8,0.9 2.8,2.9l0,9.1l1.2,0l0,-9.2c0,-2.3 -1.2,-3.8 -3.9,-3.8c-1.9,0 -3.5,1 -4.9,2.4l0,-2.1l-1.2,0l0,12.7Zm17.2,0.1l1.2,0l4.7,-12.8l-1.3,0l-4,11.3l-4,-11.3l-1.3,0l4.7,12.8Zm13.2,0.2c2.5,0 4,-1.2 5,-3.1l-0.8,-0.5c-1,1.7 -2.1,2.6 -4.1,2.6c-2.4,0 -4.3,-2.1 -4.3,-5.6l9.3,0l0,-0.2c0,-4 -2,-6.5 -5,-6.5c-2.7,0 -5.4,2.2 -5.4,6.6c-0.1,4.2 2.4,6.7 5.3,6.7Zm-4.2,-7.6c0.3,-3.2 2.2,-4.7 4.2,-4.7c2.4,0 3.7,2.1 3.9,4.7l-8.1,0Zm16.8,7.5c2.9,0 4.8,-1.4 4.8,-3.5c0,-2.3 -1.3,-3.1 -4.8,-4c-2.5,-0.6 -3.2,-1.2 -3.2,-2.5c0,-1.1 0.9,-2.1 3,-2.1c1.7,0 2.8,0.6 3.8,1.6l0.8,-0.8c-1.1,-1.1 -2.4,-1.9 -4.5,-1.9c-2.7,0 -4.2,1.6 -4.2,3.2c0,2 1.1,2.8 4.3,3.6c2.9,0.7 3.8,1.3 3.8,2.9c0,1.6 -1.2,2.5 -3.6,2.5c-1.8,0 -3,-0.8 -4,-2l-0.8,0.7c0.7,1.3 2.3,2.3 4.6,2.3Zm12.4,0c0.5,0 1,-0.1 1.4,-0.1l0,-1.1c-0.4,0.1 -0.8,0.2 -1.3,0.2c-1.6,0 -2.1,-0.8 -2.1,-2.1l0,-8.7l3.3,0l0,-1l-3.3,0l0,-4.6l-1.2,0l0,4.6l-2.2,0l0,1l2.2,0l0,8.9c0.1,2 1.1,2.9 3.2,2.9Zm4.7,-16.2l1.3,0l0,-1.5l-1.3,0l0,1.5Zm0,16l1.2,0l0,-12.7l-1.2,0l0,12.7Zm9.5,0.2c0.5,0 1,-0.1 1.4,-0.1l0,-1.1c-0.4,0.1 -0.8,0.2 -1.3,0.2c-1.6,0 -2.1,-0.8 -2.1,-2.1l0,-8.7l3.3,0l0,-1l-3.3,0l0,-4.6l-1.2,0l0,4.6l-2.2,0l0,1l2.2,0l0,8.9c0.1,2 1.1,2.9 3.2,2.9Zm4.7,-16.2l1.3,0l0,-1.5l-1.3,0l0,1.5Zm0,16l1.2,0l0,-12.7l-1.2,0l0,12.7Zm10.4,0.3c3.1,0 5.6,-2.6 5.6,-6.6c0,-4.1 -2.5,-6.6 -5.6,-6.6c-3.2,0 -5.6,2.5 -5.6,6.6c0,4 2.5,6.6 5.6,6.6Zm0,-1c-2.9,0 -4.4,-2.6 -4.4,-5.6c0,-3.2 1.7,-5.6 4.4,-5.6c2.9,0 4.4,2.6 4.4,5.6c0,3.2 -1.7,5.6 -4.4,5.6Zm9.2,0.7l1.2,0l0,-9.6c1.6,-1.5 3.1,-2.4 4.8,-2.4c1.9,0 2.8,0.9 2.8,2.9l0,9.1l1.2,0l0,-9.2c0,-2.3 -1.2,-3.8 -3.9,-3.8c-1.9,0 -3.5,1 -4.9,2.4l0,-2.1l-1.2,0l0,12.7Zm18.8,0.3c2.5,0 4,-1.2 5,-3.1l-0.8,-0.5c-1,1.7 -2.1,2.6 -4.1,2.6c-2.4,0 -4.3,-2.1 -4.3,-5.6l9.3,0l0,-0.2c0,-4 -2,-6.5 -5,-6.5c-2.7,0 -5.4,2.2 -5.4,6.6c-0.1,4.2 2.4,6.7 5.3,6.7Zm-4.2,-7.6c0.3,-3.2 2.2,-4.7 4.2,-4.7c2.4,0 3.7,2.1 3.9,4.7l-8.1,0Zm12.9,7.3l1.2,0l0,-9.6c1.6,-1.5 3.1,-2.4 4.8,-2.4c1.9,0 2.8,0.9 2.8,2.9l0,9.1l1.2,0l0,-9.2c0,-2.3 -1.2,-3.8 -3.9,-3.8c-1.9,0 -3.5,1 -4.9,2.4l0,-2.1l-1.2,0l0,12.7Zm20.2,-16l1.3,0l0,-1.5l-1.3,0l0,1.5Zm0,16l1.2,0l0,-12.7l-1.2,0l0,12.7Zm5.5,0l1.2,0l0,-9.6c1.6,-1.5 3.1,-2.4 4.8,-2.4c1.9,0 2.8,0.9 2.8,2.9l0,9.1l1.2,0l0,-9.2c0,-2.3 -1.2,-3.8 -3.9,-3.8c-1.9,0 -3.5,1 -4.9,2.4l0,-2.1l-1.2,0l0,12.7Zm23.9,0l1.2,0l4.1,-16.3l4,16.3l1.2,0l4.8,-17.9l-1.2,0l-3.1,11.7c-0.4,1.6 -0.8,3 -1.1,4.4c-0.2,-1.3 -0.7,-2.8 -1.1,-4.5l-2.9,-11.6l-1.4,0l-2.9,11.5c-0.4,1.7 -0.8,3.5 -1.1,4.6c-0.3,-1.2 -0.7,-2.9 -1.1,-4.6l-3,-11.5l-1.2,0l4.8,17.9Zm20.8,0.2c1.9,0 3.6,-0.8 5.2,-2.1c0,0.7 0.1,1.4 0.3,1.9l1.2,0c-0.3,-0.7 -0.4,-1.6 -0.4,-3.2l0,-6c0,-2.4 -1.3,-3.9 -3.9,-3.9c-2.4,0 -4.1,0.9 -5.6,2.4l0.7,0.7c1.4,-1.3 2.8,-2.1 4.9,-2.1c1.7,0 2.8,1 2.8,2.9l0,0.8c-6.7,1.1 -8.8,2.9 -8.8,5.4c0,2 1.2,3.2 3.6,3.2Zm0.1,-1c-1.6,0 -2.5,-0.8 -2.5,-2.2c0,-1.8 1.4,-3.3 7.6,-4.4l0,4.4c-1.5,1.4 -3.2,2.2 -5.1,2.2Zm15,1.1c2.4,0 3.9,-1.3 4.9,-3.5l-0.9,-0.5c-1,1.9 -2,2.9 -3.9,2.9c-2.3,0 -4.2,-2.1 -4.2,-5.6c0,-4.1 2.3,-5.6 4.3,-5.6c2,0 3,1.1 3.8,2.9l1,-0.5c-0.8,-1.8 -2.2,-3.4 -4.7,-3.4c-2.9,0 -5.5,2.2 -5.5,6.6c-0.1,4.1 2.3,6.7 5.2,6.7Zm8.3,-0.3l1.2,0l0,-9.6c1.599,-1.5 3.099,-2.4 4.8,-2.4c1.9,0 2.799,0.9 2.799,2.9l0,9.1l1.201,0l0,-9.2c0,-2.3 -1.201,-3.8 -3.9,-3.8c-1.9,0 -3.5,1 -4.9,2.4l0,-7.3l-1.2,0l0,17.9Zm17.9,0.2c2.9,0 4.8,-1.4 4.8,-3.5c0,-2.3 -1.3,-3.1 -4.8,-4c-2.5,-0.6 -3.2,-1.2 -3.2,-2.5c0,-1.1 0.9,-2.1 3,-2.1c1.7,0 2.8,0.6 3.8,1.6l0.7,-0.8c-1.1,-1.1 -2.4,-1.9 -4.5,-1.9c-2.7,0 -4.2,1.6 -4.2,3.2c0,2 1.1,2.8 4.3,3.6c2.9,0.7 3.8,1.3 3.8,2.9c0,1.6 -1.2,2.5 -3.6,2.5c-1.8,0 -3,-0.8 -4,-2l-0.8,0.7c0.9,1.3 2.5,2.3 4.7,2.3Zm12.5,0c0.5,0 1,-0.1 1.4,-0.1l0,-1.1c-0.4,0.1 -0.8,0.2 -1.3,0.2c-1.6,0 -2.1,-0.8 -2.1,-2.1l0,-8.7l3.3,0l0,-1l-3.3,0l0,-4.6l-1.2,0l0,4.6l-2.2,0l0,1l2.2,0l0,8.9c0.1,2 1.1,2.9 3.2,2.9Zm8.4,0.1c1.9,0 3.5,-1 4.9,-2.4l0,2.1l1.2,0l0,-12.7l-1.2,0l0,9.6c-1.6,1.5 -3.1,2.4 -4.8,2.4c-1.9,0 -2.8,-0.9 -2.8,-2.9l0,-9.1l-1.2,0l0,9.2c0,2.3 1.2,3.8 3.9,3.8Zm10.3,-0.3l1.2,0l0,-9.6c1.6,-1.5 3,-2.4 4.7,-2.4c2,0 2.6,0.9 2.6,2.9l0,9.1l1.2,0l0,-9.6c1.6,-1.5 3,-2.4 4.7,-2.4c1.9,0 2.6,0.9 2.6,2.9l0,9.1l1.2,0l0,-9.2c0,-2.3 -1.1,-3.8 -3.7,-3.8c-1.8,0 -3.5,1.1 -4.9,2.4c-0.4,-1.4 -1.4,-2.4 -3.5,-2.4c-1.9,0 -3.4,1 -4.8,2.4l0,-2.1l-1.2,0l0,12.7l-0.1,0Z" style="fill-rule:nonzero;"/></g></svg>